<?xml version="1.0" standalone="no"?><svg xmlns="http://www.w3.org/2000/svg" viewBox="0 0 1440 320"><path fill="#cde5fc" fill-opacity="1" d="M0,256L16,266.7C32,277,64,299,96,288C128,277,160,235,192,202.7C224,171,256,149,288,138.7C320,128,352,128,384,133.3C416,139,448,149,480,176C512,203,544,245,576,261.3C608,277,640,267,672,229.3C704,192,736,128,768,106.7C800,85,832,107,864,144C896,181,928,235,960,256C992,277,1024,267,1056,261.3C1088,256,1120,256,1152,213.3C1184,171,1216,85,1248,80C1280,75,1312,149,1344,176C1376,203,1408,181,1424,170.7L1440,160L1440,0L1424,0C1408,0,1376,0,1344,0C1312,0,1280,0,1248,0C1216,0,1184,0,1152,0C1120,0,1088,0,1056,0C1024,0,992,0,960,0C928,0,896,0,864,0C832,0,800,0,768,0C736,0,704,0,672,0C640,0,608,0,576,0C544,0,512,0,480,0C448,0,416,0,384,0C352,0,320,0,288,0C256,0,224,0,192,0C160,0,128,0,96,0C64,0,32,0,16,0L0,0Z"></path></svg>