<?xml version="1.0" standalone="no"?><svg xmlns="http://www.w3.org/2000/svg" viewBox="0 0 1440 320"><path fill="#cde5fc" fill-opacity="1" d="M0,32L18.5,37.3C36.9,43,74,53,111,69.3C147.7,85,185,107,222,138.7C258.5,171,295,213,332,202.7C369.2,192,406,128,443,112C480,96,517,128,554,154.7C590.8,181,628,203,665,202.7C701.5,203,738,181,775,154.7C812.3,128,849,96,886,122.7C923.1,149,960,235,997,240C1033.8,245,1071,171,1108,122.7C1144.6,75,1182,53,1218,37.3C1255.4,21,1292,11,1329,37.3C1366.2,64,1403,128,1422,160L1440,192L1440,320L1421.5,320C1403.1,320,1366,320,1329,320C1292.3,320,1255,320,1218,320C1181.5,320,1145,320,1108,320C1070.8,320,1034,320,997,320C960,320,923,320,886,320C849.2,320,812,320,775,320C738.5,320,702,320,665,320C627.7,320,591,320,554,320C516.9,320,480,320,443,320C406.2,320,369,320,332,320C295.4,320,258,320,222,320C184.6,320,148,320,111,320C73.8,320,37,320,18,320L0,320Z"></path></svg>